<svg xmlns="http://www.w3.org/2000/svg" xmlns:xlink="http://www.w3.org/1999/xlink" width="500" zoomAndPan="magnify" viewBox="0 0 375 374.999991" height="500" preserveAspectRatio="xMidYMid meet" version="1.0"><defs><g/><clipPath id="484c10a1f2"><path d="M 37 37 L 338 37 L 338 338 L 37 338 Z M 37 37 " clip-rule="nonzero"/></clipPath><clipPath id="8b363c7345"><path d="M 73.523438 8.820312 L 366.179688 73.527344 L 301.472656 366.179688 L 8.820312 301.476562 Z M 73.523438 8.820312 " clip-rule="nonzero"/></clipPath><clipPath id="25cb341d97"><path d="M 219.851562 41.171875 C 139.039062 23.304688 59.039062 74.332031 41.171875 155.148438 C 23.304688 235.960938 74.332031 315.960938 155.148438 333.828125 C 235.960938 351.695312 315.957031 300.667969 333.828125 219.851562 C 351.695312 139.039062 300.667969 59.039062 219.851562 41.171875 " clip-rule="nonzero"/></clipPath><clipPath id="7cff55b317"><path d="M 47 44 L 328 44 L 328 331 L 47 331 Z M 47 44 " clip-rule="nonzero"/></clipPath><clipPath id="270d3480e9"><path d="M 333.160156 325.4375 L 52.09375 335.542969 L 41.800781 49.226562 L 322.871094 39.125 Z M 333.160156 325.4375 " clip-rule="nonzero"/></clipPath><clipPath id="2a6e5c2274"><path d="M 333.160156 325.4375 L 52.09375 335.542969 L 41.800781 49.226562 L 322.871094 39.125 Z M 333.160156 325.4375 " clip-rule="nonzero"/></clipPath><clipPath id="519b2b961c"><path d="M 55 55 L 320 55 L 320 320 L 55 320 Z M 55 55 " clip-rule="nonzero"/></clipPath><clipPath id="2d9670cf13"><path d="M 40.324219 303.320312 L 71.675781 40.320312 L 334.675781 71.671875 L 303.324219 334.671875 Z M 40.324219 303.320312 " clip-rule="nonzero"/></clipPath><clipPath id="81f15553e4"><path d="M 56 171.820312 C 47.34375 244.445312 99.199219 310.335938 171.824219 318.996094 C 244.449219 327.652344 310.34375 275.796875 319 203.171875 C 327.65625 130.546875 275.800781 64.652344 203.175781 55.996094 C 130.550781 47.339844 64.660156 99.195312 56 171.820312 " clip-rule="nonzero"/></clipPath></defs><rect x="-37.5" width="450" fill="#ffffff" y="-37.499999" height="449.999989" fill-opacity="1"/><rect x="-37.5" width="450" fill="#ffffff" y="-37.499999" height="449.999989" fill-opacity="1"/><g clip-path="url(#484c10a1f2)"><g clip-path="url(#8b363c7345)"><g clip-path="url(#25cb341d97)"><path fill="#171810" d="M 73.523438 8.820312 L 366.179688 73.527344 L 301.472656 366.179688 L 8.820312 301.476562 Z M 73.523438 8.820312 " fill-opacity="1" fill-rule="nonzero"/></g></g></g><g clip-path="url(#7cff55b317)"><g clip-path="url(#270d3480e9)"><g clip-path="url(#2a6e5c2274)"><path fill="#ffffff" d="M 327.4375 176.457031 C 328.65625 200.476562 323.53125 223.222656 313.476562 244.90625 C 308.085938 256.535156 301.140625 267.210938 292.921875 277.101562 C 280.226562 292.382812 265.144531 304.664062 247.613281 313.925781 C 234.933594 320.628906 221.519531 325.402344 207.402344 327.839844 C 199.542969 329.195312 191.578125 330.523438 183.554688 330.101562 C 178.140625 329.8125 172.714844 329.714844 167.285156 329.234375 C 152.144531 327.886719 137.953125 323.550781 124.285156 317.203125 C 114.136719 312.488281 104.902344 306.324219 96.234375 299.253906 C 90.515625 294.585938 85.40625 289.332031 80.59375 283.761719 C 79.257812 282.214844 79.097656 280.351562 80.324219 279.378906 C 81.878906 278.144531 83.355469 278.515625 84.652344 279.902344 C 87.289062 282.722656 89.863281 285.589844 92.632812 288.289062 C 108.171875 303.429688 126.378906 313.902344 147.253906 319.726562 C 155.40625 322 163.683594 323.472656 172.167969 324.015625 C 176.59375 324.300781 181.042969 324.613281 185.457031 324.605469 C 190.171875 324.605469 194.910156 323.9375 199.609375 323.320312 C 208.730469 322.117188 217.679688 320.050781 226.355469 316.96875 C 241.089844 311.734375 254.648438 304.375 266.917969 294.597656 C 274.027344 288.929688 280.699219 282.828125 286.617188 275.953125 C 297.503906 263.304688 306.03125 249.203125 312.128906 233.640625 C 315.773438 224.34375 318.398438 214.78125 320.058594 204.933594 C 320.730469 200.953125 321.058594 196.945312 321.527344 192.953125 C 322.710938 182.875 322.445312 172.769531 320.945312 162.84375 C 318.847656 148.976562 314.976562 135.523438 308.785156 122.816406 C 303.941406 112.878906 298.066406 103.625 290.929688 95.195312 C 282.527344 85.28125 272.867188 76.816406 261.84375 69.867188 C 247.535156 60.847656 232.109375 54.871094 215.460938 51.941406 C 204.414062 49.992188 193.28125 49.199219 182.144531 50.269531 C 161.898438 52.222656 142.789062 58.074219 125.144531 68.339844 C 113.671875 75.015625 103.339844 83.125 94.042969 92.660156 C 80.949219 106.089844 71.019531 121.511719 63.828125 138.757812 C 58.597656 151.304688 55.3125 164.398438 53.925781 177.914062 C 53.265625 184.304688 52.917969 190.757812 53.195312 197.199219 C 53.851562 212.480469 56.507812 227.378906 62.105469 241.683594 C 62.457031 242.582031 62.871094 243.472656 63.089844 244.402344 C 63.382812 245.625 63.273438 247.003906 61.898438 247.339844 C 60.625 247.652344 58.996094 248.492188 58.035156 246.519531 C 56.527344 243.433594 55.378906 240.207031 54.367188 236.957031 C 51.828125 228.828125 49.710938 220.585938 48.765625 212.085938 C 47.773438 203.175781 47.066406 194.199219 47.601562 185.273438 C 49.175781 158.847656 57.007812 134.34375 71.335938 112.015625 C 77.25 102.796875 84.078125 94.257812 91.890625 86.605469 C 106.207031 72.589844 122.574219 61.636719 141.277344 54.253906 C 150.207031 50.734375 159.386719 48.125 168.792969 46.335938 C 178.675781 44.453125 188.734375 43.9375 198.71875 44.3125 C 216.433594 44.976562 233.464844 49.136719 249.589844 56.628906 C 260.199219 61.558594 270.007812 67.789062 278.972656 75.347656 C 300.882812 93.824219 315.316406 117.054688 322.882812 144.609375 C 324.3125 149.8125 325.261719 155.164062 326.246094 160.480469 C 327.207031 165.75 327.203125 171.113281 327.4375 176.457031 Z M 327.4375 176.457031 " fill-opacity="1" fill-rule="nonzero"/></g></g></g><g clip-path="url(#519b2b961c)"><g clip-path="url(#2d9670cf13)"><g clip-path="url(#81f15553e4)"><path fill="#661ae6" d="M 40.324219 303.320312 L 71.675781 40.320312 L 334.675781 71.671875 L 303.324219 334.671875 Z M 40.324219 303.320312 " fill-opacity="1" fill-rule="nonzero"/></g></g></g><g fill="#ffffff" fill-opacity="1"><g transform="translate(125.631033, 262.303341)"><g><path d="M 74.609375 -10.078125 C 63.234375 -8.648438 52.851562 -9.859375 43.46875 -13.703125 C 34.09375 -17.546875 26.078125 -23.304688 19.421875 -30.984375 C 13.128906 -38.304688 8.488281 -46.828125 5.5 -56.546875 C 5.351562 -57.148438 4.445312 -60.25 2.78125 -65.84375 C 1.113281 -71.445312 1.039062 -80.257812 2.5625 -92.28125 C 5.394531 -110.78125 12.476562 -125.394531 23.8125 -136.125 C 35.144531 -146.851562 48.328125 -153.160156 63.359375 -155.046875 C 71.953125 -156.117188 79.863281 -155.75 87.09375 -153.9375 C 94.332031 -152.132812 100.519531 -149.390625 105.65625 -145.703125 C 112.164062 -140.953125 116.40625 -135.367188 118.375 -128.953125 C 119.414062 -125.566406 119.644531 -122.085938 119.0625 -118.515625 C 118.425781 -115.273438 116.628906 -112.539062 113.671875 -110.3125 C 110.722656 -108.09375 107.4375 -106.394531 103.8125 -105.21875 C 100.1875 -104.039062 97.054688 -103.285156 94.421875 -102.953125 C 92.054688 -102.660156 91.226562 -102.078125 91.9375 -101.203125 C 91.707031 -103.023438 91.101562 -105.703125 90.125 -109.234375 C 88.757812 -113.523438 87.285156 -117.289062 85.703125 -120.53125 C 81.265625 -129.726562 75.191406 -133.84375 67.484375 -132.875 C 59.796875 -131.570312 53.125 -126.890625 47.46875 -118.828125 C 41.8125 -110.765625 38.46875 -101 37.4375 -89.53125 C 36.820312 -80.726562 37.816406 -71.953125 40.421875 -63.203125 C 40.671875 -62.273438 41.335938 -60.378906 42.421875 -57.515625 C 43.503906 -54.660156 45.550781 -51.328125 48.5625 -47.515625 C 51.582031 -43.710938 55.285156 -40.789062 59.671875 -38.75 C 64.054688 -36.71875 69.160156 -36.066406 74.984375 -36.796875 C 85.265625 -38.085938 94.976562 -43.609375 104.125 -53.359375 C 107.570312 -57.085938 110.226562 -60.164062 112.09375 -62.59375 C 113.957031 -65.03125 114.550781 -66.203125 113.875 -66.109375 C 114.457031 -65.785156 115.148438 -64.398438 115.953125 -61.953125 C 116.773438 -59.160156 117.109375 -55.765625 116.953125 -51.765625 C 116.804688 -47.765625 115.960938 -43.550781 114.421875 -39.125 C 112.878906 -34.707031 110.453125 -30.46875 107.140625 -26.40625 C 103.835938 -22.351562 99.515625 -18.859375 94.171875 -15.921875 C 88.835938 -12.992188 82.316406 -11.046875 74.609375 -10.078125 Z M 74.609375 -10.078125 "/></g></g></g></svg>