<svg xmlns="http://www.w3.org/2000/svg" xmlns:xlink="http://www.w3.org/1999/xlink" width="677" zoomAndPan="magnify" viewBox="0 0 507.75 507.749985" height="677" preserveAspectRatio="xMidYMid meet" version="1.0"><defs><g/><clipPath id="da53297d89"><path d="M 104 103 L 404 103 L 404 404 L 104 404 Z M 104 103 " clip-rule="nonzero"/></clipPath><clipPath id="445f95d5ec"><path d="M 140.09375 75 L 432.75 139.707031 L 368.042969 432.363281 L 75.386719 367.65625 Z M 140.09375 75 " clip-rule="nonzero"/></clipPath><clipPath id="2cdb9d7a7b"><path d="M 286.421875 107.351562 C 205.609375 89.484375 125.609375 140.511719 107.742188 221.328125 C 89.875 302.140625 140.902344 382.140625 221.714844 400.007812 C 302.53125 417.875 382.527344 366.847656 400.394531 286.035156 C 418.265625 205.21875 367.238281 125.222656 286.421875 107.351562 " clip-rule="nonzero"/></clipPath><clipPath id="7d44aebf6d"><path d="M 113 110 L 395 110 L 395 397 L 113 397 Z M 113 110 " clip-rule="nonzero"/></clipPath><clipPath id="6e9bebcf8a"><path d="M 399.730469 391.621094 L 118.664062 401.722656 L 108.371094 115.410156 L 389.4375 105.304688 Z M 399.730469 391.621094 " clip-rule="nonzero"/></clipPath><clipPath id="693fb3a51b"><path d="M 399.730469 391.621094 L 118.664062 401.722656 L 108.371094 115.410156 L 389.4375 105.304688 Z M 399.730469 391.621094 " clip-rule="nonzero"/></clipPath><clipPath id="882adf1517"><path d="M 121 121 L 387 121 L 387 387 L 121 387 Z M 121 121 " clip-rule="nonzero"/></clipPath><clipPath id="b48b5a6c36"><path d="M 106.894531 369.5 L 138.246094 106.5 L 401.246094 137.851562 L 369.894531 400.851562 Z M 106.894531 369.5 " clip-rule="nonzero"/></clipPath><clipPath id="d0a66322fc"><path d="M 122.570312 238 C 113.914062 310.625 165.769531 376.515625 238.394531 385.175781 C 311.019531 393.832031 376.910156 341.976562 385.570312 269.351562 C 394.226562 196.726562 342.371094 130.835938 269.746094 122.175781 C 197.121094 113.519531 131.226562 165.375 122.570312 238 " clip-rule="nonzero"/></clipPath></defs><g clip-path="url(#da53297d89)"><g clip-path="url(#445f95d5ec)"><g clip-path="url(#2cdb9d7a7b)"><path fill="#171810" d="M 140.09375 75 L 432.75 139.707031 L 368.042969 432.363281 L 75.386719 367.65625 Z M 140.09375 75 " fill-opacity="1" fill-rule="nonzero"/></g></g></g><g clip-path="url(#7d44aebf6d)"><g clip-path="url(#6e9bebcf8a)"><g clip-path="url(#693fb3a51b)"><path fill="#ffffff" d="M 394.007812 242.640625 C 395.226562 266.65625 390.097656 289.402344 380.046875 311.085938 C 374.652344 322.714844 367.710938 333.390625 359.492188 343.28125 C 346.796875 358.5625 331.714844 370.84375 314.183594 380.109375 C 301.503906 386.808594 288.089844 391.582031 273.96875 394.019531 C 266.113281 395.375 258.148438 396.703125 250.125 396.28125 C 244.710938 395.992188 239.28125 395.894531 233.855469 395.414062 C 218.714844 394.070312 204.523438 389.730469 190.855469 383.382812 C 180.707031 378.671875 171.472656 372.503906 162.804688 365.433594 C 157.082031 360.765625 151.976562 355.511719 147.164062 349.941406 C 145.828125 348.398438 145.667969 346.53125 146.894531 345.558594 C 148.449219 344.324219 149.925781 344.695312 151.222656 346.082031 C 153.859375 348.902344 156.429688 351.773438 159.203125 354.46875 C 174.742188 369.609375 192.945312 380.082031 213.820312 385.90625 C 221.976562 388.179688 230.253906 389.652344 238.734375 390.195312 C 243.164062 390.480469 247.613281 390.792969 252.027344 390.789062 C 256.742188 390.785156 261.480469 390.117188 266.179688 389.5 C 275.300781 388.296875 284.25 386.230469 292.925781 383.148438 C 307.660156 377.917969 321.21875 370.558594 333.488281 360.777344 C 340.59375 355.113281 347.265625 349.011719 353.1875 342.132812 C 364.074219 329.484375 372.601562 315.382812 378.699219 299.824219 C 382.34375 290.523438 384.96875 280.960938 386.625 271.113281 C 387.300781 267.132812 387.628906 263.128906 388.097656 259.132812 C 389.28125 249.054688 389.015625 238.949219 387.515625 229.023438 C 385.417969 215.160156 381.546875 201.703125 375.355469 188.996094 C 370.511719 179.058594 364.632812 169.804688 357.5 161.378906 C 349.097656 151.460938 339.4375 143 328.414062 136.050781 C 314.105469 127.027344 298.679688 121.050781 282.027344 118.121094 C 270.980469 116.171875 259.851562 115.378906 248.714844 116.449219 C 228.46875 118.40625 209.355469 124.253906 191.714844 134.519531 C 180.242188 141.195312 169.910156 149.304688 160.613281 158.84375 C 147.519531 172.273438 137.585938 187.691406 130.398438 204.9375 C 125.167969 217.484375 121.882812 230.578125 120.496094 244.09375 C 119.835938 250.484375 119.488281 256.941406 119.765625 263.378906 C 120.421875 278.664062 123.078125 293.558594 128.675781 307.863281 C 129.027344 308.761719 129.441406 309.652344 129.660156 310.582031 C 129.949219 311.804688 129.84375 313.183594 128.46875 313.519531 C 127.195312 313.832031 125.566406 314.671875 124.605469 312.699219 C 123.097656 309.617188 121.949219 306.386719 120.9375 303.136719 C 118.398438 295.007812 116.28125 286.765625 115.335938 278.269531 C 114.34375 269.359375 113.632812 260.378906 114.167969 251.453125 C 115.746094 225.027344 123.578125 200.523438 137.902344 178.195312 C 143.820312 168.976562 150.648438 160.441406 158.460938 152.785156 C 172.777344 138.773438 189.144531 127.816406 207.847656 120.4375 C 216.777344 116.914062 225.957031 114.304688 235.363281 112.515625 C 245.242188 110.632812 255.304688 110.117188 265.285156 110.492188 C 283.003906 111.15625 300.035156 115.316406 316.160156 122.808594 C 326.769531 127.738281 336.578125 133.96875 345.542969 141.53125 C 367.453125 160.003906 381.886719 183.234375 389.453125 210.789062 C 390.882812 215.996094 391.832031 221.34375 392.816406 226.660156 C 393.777344 231.929688 393.769531 237.296875 394.007812 242.640625 Z M 394.007812 242.640625 " fill-opacity="1" fill-rule="nonzero"/></g></g></g><g clip-path="url(#882adf1517)"><g clip-path="url(#b48b5a6c36)"><g clip-path="url(#d0a66322fc)"><path fill="#661ae6" d="M 106.894531 369.5 L 138.246094 106.5 L 401.246094 137.851562 L 369.894531 400.851562 Z M 106.894531 369.5 " fill-opacity="1" fill-rule="nonzero"/></g></g></g><g fill="#ffffff" fill-opacity="1"><g transform="translate(190.689531, 334.094786)"><g><path d="M 74.609375 -10.078125 C 63.234375 -8.648438 52.851562 -9.859375 43.46875 -13.703125 C 34.09375 -17.546875 26.078125 -23.304688 19.421875 -30.984375 C 13.128906 -38.304688 8.488281 -46.828125 5.5 -56.546875 C 5.351562 -57.148438 4.445312 -60.25 2.78125 -65.84375 C 1.113281 -71.445312 1.039062 -80.257812 2.5625 -92.28125 C 5.394531 -110.78125 12.476562 -125.394531 23.8125 -136.125 C 35.144531 -146.851562 48.328125 -153.160156 63.359375 -155.046875 C 71.953125 -156.117188 79.863281 -155.75 87.09375 -153.9375 C 94.332031 -152.132812 100.519531 -149.390625 105.65625 -145.703125 C 112.164062 -140.953125 116.40625 -135.367188 118.375 -128.953125 C 119.414062 -125.566406 119.644531 -122.085938 119.0625 -118.515625 C 118.425781 -115.273438 116.628906 -112.539062 113.671875 -110.3125 C 110.722656 -108.09375 107.4375 -106.394531 103.8125 -105.21875 C 100.1875 -104.039062 97.054688 -103.285156 94.421875 -102.953125 C 92.054688 -102.660156 91.226562 -102.078125 91.9375 -101.203125 C 91.707031 -103.023438 91.101562 -105.703125 90.125 -109.234375 C 88.757812 -113.523438 87.285156 -117.289062 85.703125 -120.53125 C 81.265625 -129.726562 75.191406 -133.84375 67.484375 -132.875 C 59.796875 -131.570312 53.125 -126.890625 47.46875 -118.828125 C 41.8125 -110.765625 38.46875 -101 37.4375 -89.53125 C 36.820312 -80.726562 37.816406 -71.953125 40.421875 -63.203125 C 40.671875 -62.273438 41.335938 -60.378906 42.421875 -57.515625 C 43.503906 -54.660156 45.550781 -51.328125 48.5625 -47.515625 C 51.582031 -43.710938 55.285156 -40.789062 59.671875 -38.75 C 64.054688 -36.71875 69.160156 -36.066406 74.984375 -36.796875 C 85.265625 -38.085938 94.976562 -43.609375 104.125 -53.359375 C 107.570312 -57.085938 110.226562 -60.164062 112.09375 -62.59375 C 113.957031 -65.03125 114.550781 -66.203125 113.875 -66.109375 C 114.457031 -65.785156 115.148438 -64.398438 115.953125 -61.953125 C 116.773438 -59.160156 117.109375 -55.765625 116.953125 -51.765625 C 116.804688 -47.765625 115.960938 -43.550781 114.421875 -39.125 C 112.878906 -34.707031 110.453125 -30.46875 107.140625 -26.40625 C 103.835938 -22.351562 99.515625 -18.859375 94.171875 -15.921875 C 88.835938 -12.992188 82.316406 -11.046875 74.609375 -10.078125 Z M 74.609375 -10.078125 "/></g></g></g></svg>