<?xml version="1.0" standalone="no"?>
<!DOCTYPE svg PUBLIC "-//W3C//DTD SVG 20010904//EN"
 "http://www.w3.org/TR/2001/REC-SVG-20010904/DTD/svg10.dtd">
<svg version="1.0" xmlns="http://www.w3.org/2000/svg"
 width="700.000000pt" height="700.000000pt" viewBox="0 0 700.000000 700.000000"
 preserveAspectRatio="xMidYMid meet">
<metadata>
Created by potrace 1.14, written by Peter Selinger 2001-2017
</metadata>
<g transform="translate(0.000000,700.000000) scale(0.100000,-0.100000)"
fill="#000000" stroke="none">
<path d="M3328 5565 c-2 -2 -28 -6 -58 -9 -302 -35 -625 -150 -879 -313 -262
-169 -491 -401 -648 -658 -118 -192 -199 -392 -251 -625 -43 -190 -54 -278
-54 -451 0 -102 9 -259 17 -289 2 -8 7 -35 10 -60 22 -156 93 -375 179 -555
260 -540 761 -955 1325 -1095 221 -55 340 -71 533 -72 410 -2 840 131 1168
361 510 357 821 885 890 1511 8 78 5 383 -4 435 -7 35 -13 73 -22 130 -7 48
-39 181 -61 250 -178 563 -604 1037 -1143 1270 -156 68 -367 128 -525 150 -27
4 -61 9 -75 12 -26 5 -397 13 -402 8z"/>
</g>
</svg>
